<?xml version="1.0" encoding="UTF-8"?>
<svg version="1.1" xmlns="http://www.w3.org/2000/svg" width="512" height="512">
<path d="M0 0 C95.04 0 190.08 0 288 0 C288 89.76 288 179.52 288 272 C293.61 272 299.22 272 305 272 C334.53475728 285.33378416 348.48550661 308.99403242 368 335 C368 382.85 368 430.7 368 480 C209.6 480 51.2 480 -112 480 C-112 335 -112 335 -81.5625 294.4375 C-53.63192275 272 -53.63192275 272 -32 272 C-32 192.8 -32 113.6 -32 32 C-21.44 32 -10.88 32 0 32 C0 21.44 0 10.88 0 0 Z " fill="#DFDFDF" transform="translate(128,16)"/>
<path d="M0 0 C58.1934375 -1.4540625 58.1934375 -1.4540625 117.5625 -2.9375 C129.71650635 -3.36538818 141.8705127 -3.79327637 154.39282227 -4.23413086 C164.16504902 -4.43160863 173.91961036 -4.59748478 183.69140625 -4.58984375 C184.95388664 -4.59095744 186.21636702 -4.59207113 187.51710439 -4.59321856 C244.35978237 -4.47872723 244.35978237 -4.47872723 266.23118591 16.97447205 C288 39.61671868 288 39.61671868 288 48 C280.08 48 272.16 48 264 48 C264.01110306 50.37430206 264.02220612 52.74860413 264.03364563 55.19485474 C264.13595781 77.58842088 264.21029326 99.98195611 264.25906086 122.37570381 C264.28480021 133.88809587 264.319869 145.40031599 264.37719727 156.91259766 C264.42716304 166.95121089 264.45932202 176.98969954 264.47044247 187.02843368 C264.47693893 192.33983342 264.49211808 197.65087689 264.52865028 202.96216202 C264.56281813 207.97071127 264.57301128 212.97876058 264.56553841 217.98741531 C264.56690372 219.81665268 264.57671145 221.64590836 264.59602737 223.47504425 C264.74424058 238.24610062 262.7102342 251.12917661 253 263 C252.29488281 263.60070312 251.58976562 264.20140625 250.86328125 264.8203125 C248.33481691 267.77813871 248.40368416 269.90789589 248.25 273.75 C248.1675 275.8125 248.085 277.875 248 280 C242.72 280 237.44 280 232 280 C231.67 279.34 231.34 278.68 231 278 C230.03775481 278.3250395 229.07550962 278.650079 228.08410549 278.98496819 C223.59033485 280.25976858 219.29884986 280.27229728 214.65431213 280.24050903 C213.73361543 280.24221788 212.81291873 280.24392673 211.86432213 280.24568737 C208.79040875 280.24897211 205.71671541 280.23799525 202.64282227 280.22705078 C200.43492132 280.22648645 198.22701999 280.22680366 196.01911926 280.22793579 C190.03208848 280.22850944 184.04513789 280.21675305 178.05812573 280.20278788 C171.79875931 280.19028263 165.53939103 280.18911018 159.28001404 280.18673706 C148.77626248 280.18122779 138.27253571 280.16873663 127.76879883 280.15087891 C116.95206855 280.13250823 106.13534626 280.11835754 95.31860352 280.10986328 C94.65135557 280.10933783 93.98410763 280.10881239 93.29664005 280.10827102 C89.94910258 280.10566086 86.60156505 280.10313346 83.25402749 280.10064721 C55.50266383 280.07974393 27.75133554 280.04416379 0 280 C0 287.92 0 295.84 0 304 C-26.4 304 -52.8 304 -80 304 C-76.18799429 299.55266001 -72.39213098 295.20127488 -68.35620117 290.97290039 C-67.56191711 290.13743683 -67.56191711 290.13743683 -66.75158691 289.28509521 C-61.902184 284.19735897 -57.00533986 279.15578044 -52.0923872 274.12944889 C-48.80556886 270.76508909 -45.53707593 267.38642036 -42.3059082 263.96850586 C-39.15961807 260.64136828 -35.97252962 257.3587188 -32.75365639 254.10180473 C-31.54386549 252.86337142 -30.34883333 251.61032114 -29.170187 250.34221077 C-27.50761203 248.55917596 -25.79726644 246.83857558 -24.06713867 245.12133789 C-23.60469254 244.59934311 -23.1422464 244.07734833 -22.66578674 243.53953552 C-16.04689736 237.25291889 -9.7927092 240 0 240 C0 160.8 0 81.6 0 0 Z " fill="#F4F4F4" transform="translate(96,48)"/>
<path d="M0 0 C7.92 0 15.84 0 24 0 C24 84.48 24 168.96 24 256 C13.11 256.33 2.22 256.66 -9 257 C-14.55946865 261.83442712 -17.37062218 264.35415337 -21.06881714 270.10827255 C-27.34405922 279.4014676 -35.49149355 287.2369645 -46.57324219 289.90661621 C-63.32265671 292.92168334 -80.54353119 292.42286408 -97.48897171 291.98562169 C-102.55803343 291.86857389 -107.60838424 291.9107282 -112.67675781 292.04150391 C-164.34336403 293.34383819 -164.34336403 293.34383819 -177.69165039 280.91088867 C-181.71861769 276.88402984 -185.272657 272.52455431 -188.81617737 268.07392883 C-195.03699436 260.34587682 -199.43755207 255.41201279 -209.60059547 254.07375336 C-216.83295159 253.45144755 -224.03984556 253.82462369 -231.26013184 254.40783691 C-234.97221453 254.67151403 -238.68865938 254.74688566 -242.40820312 254.84179688 C-249.62345042 255.05191651 -256.79963724 255.47373937 -264 256 C-264 248.08 -264 240.16 -264 232 C-261.21147583 231.99191315 -258.42295166 231.98382629 -255.54992676 231.97549438 C-229.29876955 231.89842671 -203.04766498 231.81047457 -176.79657745 231.71247292 C-174.10982782 231.70248177 -171.42307804 231.6925328 -168.73632812 231.68261719 C-168.0685289 231.68015119 -167.40072967 231.6776852 -166.71269411 231.67514448 C-155.90607997 231.63544307 -145.09945541 231.60268416 -134.29281098 231.57250018 C-123.20054021 231.54136354 -112.10831189 231.50259771 -101.01608992 231.45720994 C-94.78730441 231.43196381 -88.55855008 231.41017686 -82.32972717 231.39665604 C-76.46602437 231.38381872 -70.60242859 231.36174601 -64.73878479 231.33261681 C-62.58778033 231.32355415 -60.43675864 231.31785386 -58.28573608 231.31578636 C-55.34568369 231.31245461 -52.40593305 231.29695219 -49.46594238 231.2784729 C-48.6176727 231.28040763 -47.76940301 231.28234237 -46.89542818 231.28433573 C-41.61905949 231.23486293 -37.0744899 230.46291572 -32 229 C-32 229.99 -32 230.98 -32 232 C-26.72 232 -21.44 232 -16 232 C-16.165 230.040625 -16.33 228.08125 -16.5 226.0625 C-16.51354697 219.77670785 -16.51354697 219.77670785 -14.4296875 216.625 C-13.02927771 215.21926545 -11.61034527 213.83179974 -10.17578125 212.4609375 C-3.43376776 204.8353208 -0.85497142 194.14695507 -0.84178162 184.22991943 C-0.83437465 183.0487298 -0.83437465 183.0487298 -0.82681805 181.84367776 C-0.81144932 179.20275344 -0.80308411 176.56185342 -0.79467773 173.92089844 C-0.78509872 172.02870469 -0.77508863 170.13651309 -0.76467896 168.24432373 C-0.73762636 163.10424233 -0.71661869 157.96415175 -0.69667697 152.82403851 C-0.67481963 147.45349641 -0.6474297 142.08298263 -0.62062073 136.71246338 C-0.57069045 126.54114627 -0.52575284 116.36981345 -0.48259836 106.19846559 C-0.43322887 94.61937249 -0.37830967 83.04030781 -0.32291877 71.4612422 C-0.20909357 47.64085445 -0.10245253 23.82043914 0 0 Z " fill="#CCCCCC" transform="translate(360,96)"/>
<path d="M0 0 C13.2 0 26.4 0 40 0 C40 47.52 40 95.04 40 144 C-118.4 144 -276.8 144 -440 144 C-440 136.08 -440 128.16 -440 120 C-437.99079845 119.99761165 -435.98159691 119.99522329 -433.91151047 119.99276257 C-386.20675256 119.93559279 -338.50203863 119.86265164 -290.797334 119.77101372 C-284.92445986 119.75974569 -279.05158548 119.74860721 -273.17871094 119.73754883 C-272.00953767 119.73534514 -270.84036441 119.73314146 -269.63576165 119.730871 C-250.70988588 119.69550799 -231.78401016 119.67063822 -212.85811362 119.64965298 C-193.43537611 119.62788302 -174.01268143 119.59482119 -154.58998036 119.55129844 C-142.60717333 119.52480239 -130.62441966 119.50709193 -118.64158478 119.50065396 C-110.42217494 119.49539384 -102.20283223 119.47915582 -93.98345837 119.45433434 C-89.24281525 119.44034084 -84.50229225 119.43114052 -79.7616272 119.43499184 C-75.41610343 119.438415 -71.07083572 119.42796301 -66.72536436 119.40676448 C-65.15854821 119.4015186 -63.5917053 119.4012384 -62.02488956 119.40660437 C-44.91629386 119.45920023 -29.57914312 116.04204791 -16.76953125 103.93359375 C-3.659363 89.60791321 -0.72485176 74.07150176 -0.5859375 55.37109375 C-0.56719871 53.76968926 -0.54762334 52.16829435 -0.5272522 50.56690979 C-0.47621097 46.37984913 -0.43643654 42.19275657 -0.39910889 38.0055542 C-0.35180452 32.96674114 -0.29032821 27.92808294 -0.23126221 22.88939667 C-0.14339194 15.25966126 -0.07338348 7.62995038 0 0 Z " fill="#CCCCCC" transform="translate(456,352)"/>
<path d="M0 0 C1.53598817 1.31584655 3.05834006 2.64788511 4.5625 4 C5.17351562 4.51820313 5.78453125 5.03640625 6.4140625 5.5703125 C20.50271517 18.37233023 26.41881784 36.28668355 27.8515625 54.71875 C28.32849813 73.96960654 21.59101517 91.49536044 8.98828125 105.953125 C-3.47452276 118.96706585 -20.29753875 128.52125367 -38.6015625 129.3359375 C-59.55649724 129.68623349 -77.9309702 124.97790925 -93.36083984 110.20214844 C-107.86819605 95.72951069 -116.7047757 78.01178197 -116.875 57.375 C-116.57671067 38.98118646 -110.31278177 23.00097764 -98.4375 9 C-97.82261719 8.27167969 -97.20773438 7.54335937 -96.57421875 6.79296875 C-87.34420715 -3.22762201 -75.35742417 -9.27279763 -62.4375 -13 C-61.61121094 -13.24492188 -60.78492188 -13.48984375 -59.93359375 -13.7421875 C-39.13343817 -18.88063541 -16.68344259 -12.98439876 0 0 Z " fill="#CCCCCC" transform="translate(284.4375,127)"/>
<path d="M0 0 C1.27440445 -0.00571014 2.5488089 -0.01142029 3.86183167 -0.01730347 C5.27708425 -0.01854882 6.69233695 -0.01967391 8.10758972 -0.02069092 C9.59581627 -0.02531949 11.08404164 -0.0303442 12.57226562 -0.03573608 C16.61781591 -0.04885853 20.66334961 -0.05530476 24.70891786 -0.05974674 C27.23653719 -0.06267777 29.76415198 -0.06678265 32.29176903 -0.07125092 C40.2004306 -0.08492556 48.1090818 -0.09459233 56.01775438 -0.09845281 C65.14652132 -0.10293335 74.27513851 -0.12048117 83.40385991 -0.1494534 C90.46043448 -0.17107159 97.51696692 -0.18115716 104.57357424 -0.18249393 C108.78798757 -0.18354188 113.00226011 -0.18944748 117.21663857 -0.20731354 C121.18193989 -0.22379659 125.14699466 -0.22594867 129.11231804 -0.21717453 C130.5659463 -0.21640427 132.01958784 -0.22074545 133.47318268 -0.23063278 C135.46116669 -0.24335965 137.44924984 -0.23568109 139.43725586 -0.22705078 C141.10446544 -0.22925062 141.10446544 -0.22925062 142.80535603 -0.2314949 C147.03362056 0.27519813 150.39662633 1.76089037 153.55363464 4.64044189 C157.26725698 9.40977626 158.03572901 12.36425913 157.97160339 18.32794189 C157.96257996 19.41462158 157.95355652 20.50130127 157.94425964 21.62091064 C157.9268573 22.86807861 157.9268573 22.86807861 157.90910339 24.14044189 C158.65999237 24.13155945 159.41088135 24.122677 160.18452454 24.11352539 C167.27578258 24.03323461 174.36688204 23.97240429 181.45846748 23.93319321 C185.10399459 23.91235618 188.74914476 23.88411106 192.39445496 23.83868408 C195.91525327 23.79508546 199.43569 23.77127558 202.95673752 23.76093292 C204.94758287 23.74999184 206.93828361 23.7187879 208.9289093 23.68725586 C220.17349253 23.68447307 220.17349253 23.68447307 224.90910339 28.14044189 C229.30803443 33.13382307 230.26586677 36.05059417 230.19035339 42.60137939 C229.63926654 47.57646902 226.90212639 50.26563592 223.28410339 53.45294189 C219.49397878 56.14592518 217.44895778 56.26306906 212.80705261 56.25396729 C211.52587555 56.25389175 210.24469849 56.25381622 208.92469788 56.2537384 C207.52106182 56.24863137 206.11742616 56.24341537 204.71379089 56.23809814 C203.28175404 56.23623335 201.84971655 56.23480974 200.41767883 56.23381042 C196.64636986 56.22999008 192.87509932 56.22016391 189.10380554 56.20910645 C185.25635803 56.19888195 181.40890432 56.19431058 177.56144714 56.18927002 C170.01064836 56.17854122 162.45988126 56.16147058 154.90910339 56.14044189 C154.72347839 56.71794189 154.53785339 57.29544189 154.34660339 57.89044189 C152.16185927 61.31004139 149.68414547 62.89943768 145.90910339 64.14044189 C141.03483806 64.72409487 136.1738144 64.68803508 131.27238464 64.65802002 C129.7851849 64.66344568 128.29799053 64.67057082 126.81080627 64.67926025 C122.78595084 64.69744406 118.76150707 64.69044674 114.73664474 64.67774391 C110.51718314 64.6675905 106.29775589 64.67701608 102.07829285 64.68328857 C94.99351193 64.69055818 87.908898 64.68099537 80.82414246 64.66192627 C72.64255928 64.64015877 64.46137488 64.64721063 56.27980137 64.66923189 C49.24517952 64.68740553 42.21067745 64.68993464 35.1760397 64.67947721 C30.97897242 64.67325304 26.78209235 64.67237688 22.58503723 64.68562317 C18.63844333 64.69720975 14.69236169 64.68910527 10.74582291 64.66604614 C9.30068943 64.66077395 7.85551257 64.66224729 6.41039658 64.6710968 C-7.16247158 64.74652687 -7.16247158 64.74652687 -13.09089661 60.14044189 C-18.33615495 54.61911732 -18.25562024 49.78118187 -18.29402161 42.42950439 C-18.29972168 41.58374847 -18.30542175 40.73799255 -18.31129456 39.86660767 C-18.32072662 38.07964319 -18.3272714 36.29266147 -18.33113098 34.50567627 C-18.34083739 31.78205843 -18.37187758 29.05919532 -18.40339661 26.33575439 C-18.40992726 24.59617552 -18.41517749 22.85659128 -18.41902161 21.11700439 C-18.43136841 20.30744293 -18.44371521 19.49788147 -18.45643616 18.66378784 C-18.43453631 13.06352758 -17.50671258 8.7890318 -13.59089661 4.49591064 C-8.86711016 0.81775401 -5.90029403 0.01580719 0 0 Z " fill="#F4F4F4" transform="translate(74.09089660644531,391.85955810546875)"/>
<path d="M0 0 C9.33784369 6.88704751 15.45302192 15.19283658 18.5390625 26.421875 C18.9628369 29.77855742 19.08987337 33.10382362 19.1640625 36.484375 C19.22207031 37.36931641 19.28007812 38.25425781 19.33984375 39.16601562 C19.46239508 45.44912793 19.46239508 45.44912793 17.00170898 48.04150391 C14.9044054 49.40985877 12.84183041 50.43995774 10.5390625 51.421875 C9.85360352 51.72552979 9.16814453 52.02918457 8.46191406 52.34204102 C6.44353087 53.18335794 4.41143293 53.93860055 2.3515625 54.671875 C1.32385742 55.05472656 1.32385742 55.05472656 0.27539062 55.4453125 C-15.04064649 61.04694301 -34.50063257 60.37341456 -49.33447266 53.56152344 C-59.10923697 48.77357553 -59.10923697 48.77357553 -61.4609375 46.421875 C-62.80330506 32.96116859 -62.05364153 20.14256435 -53.21875 9.33203125 C-39.31815154 -5.77328574 -18.28404477 -11.72500649 0 0 Z " fill="#D1A772" transform="translate(261.4609375,197.578125)"/>
<path d="M0 0 C68.64 0 137.28 0 208 0 C208 5.28 208 10.56 208 16 C139.36 16 70.72 16 0 16 C0 10.72 0 5.44 0 0 Z " fill="#FFFFFF" transform="translate(136,280)"/>
<path d="M0 0 C18.93910524 0 18.93910524 0 23.11320496 3.98695374 C23.64118179 4.57447922 24.16915863 5.1620047 24.71313477 5.76733398 C25.33009216 6.38020264 25.94704956 6.99307129 26.58270264 7.62451172 C28.57880621 9.62727372 30.50799025 11.68291583 32.44140625 13.74609375 C33.82589018 15.15980139 35.21414061 16.56982924 36.60594177 17.97633362 C40.23378992 21.66301382 43.80726373 25.39823899 47.3717041 29.14611816 C51.02663955 32.96886254 54.7338894 36.74016248 58.43554688 40.51757812 C63.81221628 46.02098965 69.17180035 51.54000773 74.48657227 57.10327148 C75.04896103 57.68877274 75.61134979 58.27427399 76.19078064 58.8775177 C80 62.88221785 80 62.88221785 80 64 C53.6 64 27.2 64 0 64 C0 42.88 0 21.76 0 0 Z " fill="#F2F2F2" transform="translate(416,288)"/>
<path d="M0 0 C58.08 0 116.16 0 176 0 C176 5.28 176 10.56 176 16 C117.92 16 59.84 16 0 16 C0 10.72 0 5.44 0 0 Z " fill="#FFFFFF" transform="translate(136,312)"/>
<path d="M0 0 C5.88733685 3.47328241 10.53188681 8.7709906 13.25 15 C14.39271392 23.14183668 14.62864346 29.62590369 9.75 36.5625 C4.85401785 42.73515597 -0.07514602 45.95725392 -7.921875 46.875 C-14.23666468 47.15410673 -19.16066536 46.43910113 -24.25 42.5625 C-31.06190514 36.2950633 -34.14251788 30.93406675 -34.625 21.625 C-34.44055886 15.20838969 -32.5703836 11.00409766 -28.15625 6.359375 C-20.181268 -1.03077498 -10.66722679 -4.62598548 0 0 Z " fill="#FCDEB1" transform="translate(250.25,145.4375)"/>
<path d="M0 0 C6.52990496 2.83664689 9.79190917 9.08381835 12.875 15.25 C15.09852094 20.94367166 15.62551805 26.38628285 15.8125 32.4375 C15.86067871 33.30213867 15.90885742 34.16677734 15.95849609 35.05761719 C15.95500465 41.01868047 15.95500465 41.01868047 13.44946289 43.59326172 C11.35690289 44.96261038 9.29378886 46.00572001 7 47 C6.31478271 47.30413818 5.62956543 47.60827637 4.92358398 47.92163086 C2.90471029 48.76139098 0.87224148 49.51677145 -1.1875 50.25 C-2.21520508 50.63285156 -2.21520508 50.63285156 -3.26367188 51.0234375 C-18.57970899 56.62506801 -38.03969507 55.95153956 -52.87353516 49.13964844 C-62.64829947 44.35170053 -62.64829947 44.35170053 -65 42 C-65.04080783 40.00041636 -65.04254356 37.99954746 -65 36 C-63.03377686 35.98598145 -63.03377686 35.98598145 -61.02783203 35.97167969 C-56.12596689 35.93155776 -51.2247148 35.86573823 -46.32324219 35.79248047 C-44.20906499 35.76439903 -42.09478531 35.74312124 -39.98046875 35.72900391 C-36.92655449 35.70739602 -33.87385595 35.66065517 -30.8203125 35.609375 C-29.88760529 35.60814636 -28.95489807 35.60691772 -27.993927 35.60565186 C-20.83029632 35.4487308 -13.67585895 34.15378078 -8.08401489 29.35614014 C-0.15921594 20.99057123 -0.38063275 10.81522033 0 0 Z " fill="#C69A61" transform="translate(265,202)"/>
<path d="M0 0 C3.73261016 1.86630508 5.60388574 3.35563789 8.49316406 6.25024414 C9.81408051 7.56654564 9.81408051 7.56654564 11.16168213 8.90943909 C12.11317825 9.86783099 13.0644882 10.82640775 14.015625 11.78515625 C14.99603394 12.76675771 15.97681328 13.74798934 16.95794678 14.72886658 C19.00860901 16.78109024 21.05587482 18.83662265 23.10058594 20.89477539 C25.72741757 23.53865244 28.36084046 26.17584248 30.99658585 28.81083012 C33.01967516 30.83419062 35.04015354 32.86014094 37.05974579 34.8869915 C38.03043014 35.86086653 39.00172887 36.83412958 39.97364044 37.80677986 C41.32642408 39.16171965 42.67551821 40.5203401 44.02441406 41.87915039 C45.17879974 43.03925377 45.17879974 43.03925377 46.35650635 44.22279358 C48 46 48 46 48 47 C32.16 47 16.32 47 0 47 C0 31.49 0 15.98 0 0 Z " fill="#FEFEFE" transform="translate(336,49)"/>
<path d="M0 0 C5.28 0 10.56 0 16 0 C16 5.28 16 10.56 16 16 C10.72 16 5.44 16 0 16 C0 10.72 0 5.44 0 0 Z " fill="#FFFFFF" transform="translate(328,312)"/>
</svg>
