<svg xmlns="http://www.w3.org/2000/svg" version="1.1" xmlns:xlink="http://www.w3.org/1999/xlink" width="512" height="512" x="0" y="0" viewBox="0 0 512 512" style="enable-background:new 0 0 512 512" xml:space="preserve" class=""><g><linearGradient id="b" x1="263.93" x2="138.06" y1="233.35" y2="233.35" gradientUnits="userSpaceOnUse"><stop offset="0" stop-color="#cacfdd"></stop><stop offset="1" stop-color="#eef0f1"></stop></linearGradient><linearGradient id="a" x1="276.19" x2="92.95" y1="233.34" y2="233.34" gradientUnits="userSpaceOnUse"><stop offset="0" stop-color="#a9afc4"></stop><stop offset="1" stop-color="#d4d8e5"></stop></linearGradient><linearGradient xlink:href="#a" id="c" x1="289.37" x2="289.37" y1="341.27" y2="376.21"></linearGradient><linearGradient xlink:href="#a" id="d" x1="263.16" x2="44.59" y1="335.55" y2="335.55"></linearGradient><linearGradient xlink:href="#a" id="e" x1="261.16" x2="474.86" y1="335.55" y2="335.55"></linearGradient><g data-name="Empty Mailbox"><g fill="#5e6175"><path d="m49.617 208.123 4.242-4.242 13.646 13.645-4.242 4.242zM36 232.59h19.3v6H36zM77.16 189.73h6v19.3h-6zM355.45 408a10.47 10.47 0 1 1 10.47-10.47A10.47 10.47 0 0 1 355.45 408zm0-14.94a4.47 4.47 0 1 0 4.47 4.47 4.47 4.47 0 0 0-4.47-4.48zM396.58 378.74a8.87 8.87 0 1 1 8.87-8.87 8.88 8.88 0 0 1-8.87 8.87zm0-11.74a2.87 2.87 0 1 0 2.87 2.87 2.88 2.88 0 0 0-2.87-2.87z" fill="#435642" opacity="1" data-original="#5e6175" class=""></path></g><path fill="#0b8c00" d="M318.94 61.98h52.42v40.82h-52.42z" opacity="1" data-original="#e1830e" class=""></path><path fill="url(#b)" d="M263.75 207.82v121.5H122.86v-121.5a70.45 70.45 0 0 1 140.89 0z" opacity="1" data-original="url(#b)" class=""></path><path fill="#f5f5f5" d="M263.75 341.78h51.23v108.24h-51.23z" opacity="1" data-original="#f5f5f5" class=""></path><path fill="url(#a)" d="M263.75 207.82v121.49L158.13 146.77a70.46 70.46 0 0 1 105.62 61z" opacity="1" data-original="url(#a)" class=""></path><path fill="url(#a)" d="M263.75 341.78h51.23v34.6h-51.23z" opacity="1" data-original="url(#a)" class=""></path><path fill="#435642" d="M266.75 332.31H119.86V207.82a73.45 73.45 0 0 1 146.89 0zm-140.89-6h134.89V207.82a67.45 67.45 0 0 0-134.89 0z" opacity="1" data-original="#5e6175" class=""></path><path fill="#f5f5f5" d="M476 207.82v121.49H263.75V207.82a70.45 70.45 0 0 0-70.45-70.44h212.26A70.45 70.45 0 0 1 476 207.82z" opacity="1" data-original="#f5f5f5" class=""></path><path fill="#435642" d="M479 332.31H260.75V207.82a67.41 67.41 0 0 0-67.45-67.44v-6h212.26A73.53 73.53 0 0 1 479 207.82zm-212.25-6H473V207.82a67.52 67.52 0 0 0-67.44-67.44H222.48a73.46 73.46 0 0 1 44.27 67.44z" opacity="1" data-original="#5e6175" class=""></path><path fill="#f5f5f3" d="M309.5 64.98h12.44v148.84H309.5z" opacity="1" data-original="#f5f5f3" class=""></path><path fill="#435642" d="M324.94 216.82H306.5V62h18.44zm-12.44-6h6.44V68h-6.44z" opacity="1" data-original="#5e6175" class=""></path><path fill="url(#a)" d="M43.4 329.31h220.35v12.47H43.4z" opacity="1" data-original="url(#a)" class=""></path><path fill="url(#a)" d="M263.75 329.31H476v12.47H263.75z" opacity="1" data-original="url(#a)" class=""></path><path fill="#435642" d="M266.75 344.78H40.4v-18.47h226.35zm-220.35-6h214.35v-6.47H46.4z" opacity="1" data-original="#5e6175" class=""></path><path fill="#435642" d="M479 344.78H260.75v-18.47H479zm-212.25-6H473v-6.47H266.75z" opacity="1" data-original="#5e6175" class=""></path><circle cx="315.72" cy="213.82" r="14.78" fill="#435642" opacity="1" data-original="#5e6175" class=""></circle><path fill="#435642" d="M315.72 231.6a17.78 17.78 0 1 1 17.78-17.78 17.81 17.81 0 0 1-17.78 17.78zm0-29.56a11.78 11.78 0 1 0 11.78 11.78A11.79 11.79 0 0 0 315.72 202zM317.98 450.02h-6V344.78h-45.23v105.24h-6V338.78h57.23z" opacity="1" data-original="#5e6175" class=""></path><circle cx="119.41" cy="271.64" r="57.68" fill="#f5f5f5" opacity="1" data-original="#f5f5f5" class=""></circle><path fill="#435642" d="M119.41 332.31a60.68 60.68 0 1 1 60.68-60.67 60.74 60.74 0 0 1-60.68 60.67zm0-115.35a54.68 54.68 0 1 0 54.68 54.68A54.73 54.73 0 0 0 119.41 217z" opacity="1" data-original="#5e6175" class=""></path><path fill="#0b8c00" d="m88.751 286.788 45.863-45.863 15.526 15.526-45.863 45.863z" opacity="1" data-original="#e1830e" class=""></path><path fill="#0b8c00" d="m88.758 256.45 15.526-15.525 45.863 45.863-15.526 15.526z" opacity="1" data-original="#e1830e" class=""></path><path fill="#a9afc4" d="M299.39 104.93h-6v-6h6zm-16 0h-6v-6h6zm-16 0h-6v-6h6zm-16 0h-6v-6h6zm-16 0h-6v-6h6zm-16 0h-6v-6h6zm-16 0h-6v-6h6zm-16 0h-6v-6h6zm-16 0h-6v-6h6zm-16 0h-6v-6h6zm-16 0h-6v-6h6zm-16 0h-6v-6h6zM123.34 168.74h-6v-6h6zm0-16h-6v-6h6zm0-16h-6v-6h6zm0-16h-6v-6h6z" opacity="1" data-original="#a9afc4" class=""></path></g></g></svg>