<svg xmlns="http://www.w3.org/2000/svg" version="1.1" xmlns:xlink="http://www.w3.org/1999/xlink" width="512" height="512" x="0" y="0" viewBox="0 0 512 512" style="enable-background:new 0 0 512 512" xml:space="preserve" class=""><g transform="matrix(1,0,0,1,-5,0)"><linearGradient id="a" x1="109.28" x2="551.747" y1="556.908" y2="114.441" gradientUnits="userSpaceOnUse"><stop stop-opacity="1" stop-color="#0b8c00" offset="0.005791505791505791"></stop><stop stop-opacity="1" stop-color="#0b8c00" offset="1"></stop></linearGradient><path fill="url(#a)" d="M457.491 469.561h-21.845V254.316a7 7 0 0 0-7-7h-55.998a7 7 0 0 0-7 7v215.245h-23.512V297.264a7 7 0 0 0-7-7h-55.999a7 7 0 0 0-7 7v172.297h-23.512v-129.35a7 7 0 0 0-7-7h-55.998a7 7 0 0 0-7 7v129.35h-23.512V383.16a7 7 0 0 0-7-7H92.116a7 7 0 0 0-7 7v86.401H63.271a7 7 0 0 0-7 7V501a7 7 0 0 0 7 7H457.49a7 7 0 0 0 7-7v-24.439a7 7 0 0 0-7-7zm-77.843-208.245h41.998v208.245h-41.998zm-93.51 42.948h41.999v165.297h-41.999zm-93.51 42.948h41.998v122.35h-41.998zm-93.51 42.948h41.999v79.401H99.118zm351.374 103.841H70.272v-10.439h380.219v10.439zM251.441 283.249a10.244 10.244 0 0 0 10.262 2.785 10.24 10.24 0 0 0 7.229-7.802l13.717-66.647c.691-3.367-.28-6.717-2.667-9.196-2.388-2.476-5.702-3.567-9.092-2.999l-66.59 11.183a10.248 10.248 0 0 0-8.044 6.883 10.249 10.249 0 0 0 2.311 10.33l8.462 8.876c-20.044 19.011-97.448 89.056-189.772 129.014a7 7 0 0 0 3.803 13.349c102.664-15.165 171.744-63.701 220.82-105.805l9.562 10.029zM73.242 353.253c65.476-37.069 121.797-84.801 148.585-111.423a7 7 0 0 0 .132-9.795l-8.408-8.82 54.288-9.117-11.182 54.332-9.247-9.699a7 7 0 0 0-9.668-.445c-38.929 33.958-91.218 73.278-164.5 94.966zM400.646 4c-54.213 0-98.319 44.106-98.319 98.32 0 13.11 2.524 25.771 7.498 37.711l-36.811 36.812a7.002 7.002 0 0 0 3.138 11.711l22.367 5.993-1.519 1.519a7 7 0 0 0 9.9 9.899l1.519-1.519 5.993 22.367a6.999 6.999 0 0 0 11.711 3.139l36.812-36.811c11.94 4.974 24.601 7.498 37.711 7.498 54.214 0 98.32-44.106 98.32-98.319S454.86 4 400.646 4zm-109.16 174.169 31.779-31.78 18.464 4.948-31.78 31.78-18.464-4.948zm92.129-75.849c0-9.391 7.64-17.031 17.031-17.031s17.032 7.64 17.032 17.031-7.64 17.031-17.032 17.031c-2.119 0-4.141-.407-6.014-1.117l10.964-10.964a7 7 0 0 0-9.899-9.899l-10.964 10.964a16.9 16.9 0 0 1-1.117-6.014zm.615 26.316a30.835 30.835 0 0 0 16.416 4.716c17.111 0 31.032-13.921 31.032-31.031S417.757 71.29 400.646 71.29s-31.031 13.921-31.031 31.031a30.832 30.832 0 0 0 4.716 16.416l-14.105 14.105c-6.431-8.496-10.254-19.069-10.254-30.522 0-27.943 22.733-50.676 50.675-50.676s50.676 22.733 50.676 50.676-22.733 50.675-50.676 50.675c-11.452 0-22.026-3.823-30.522-10.254zm-59.433 82.844-4.948-18.464 31.78-31.78 4.948 18.464-31.78 31.779zm75.849-24.841c-10.137 0-19.956-1.758-29.287-5.224a6.982 6.982 0 0 0-.214-1.434l-6.404-23.898a64.297 64.297 0 0 0 35.904 10.912c35.662 0 64.676-29.013 64.676-64.675s-29.014-64.676-64.676-64.676-64.675 29.014-64.675 64.676a64.3 64.3 0 0 0 10.912 35.905l-23.898-6.404a6.972 6.972 0 0 0-1.434-.214c-3.466-9.332-5.224-19.151-5.224-29.287 0-46.494 37.825-84.32 84.319-84.32s84.32 37.826 84.32 84.32-37.826 84.319-84.32 84.319z" opacity="1" data-original="url(#a)" class=""></path></g></svg>