<svg xmlns="http://www.w3.org/2000/svg" version="1.1" xmlns:xlink="http://www.w3.org/1999/xlink" width="512" height="512" x="0" y="0" viewBox="0 0 128 128" style="enable-background:new 0 0 512 512" xml:space="preserve" class=""><g><path fill="#7bc375" d="M126.19 63.61c2.72-25.34-24.25-24.26-29.36-23.71-.49.05-.84.51-.74.99.23 1.16.87 2.13 1.5 2.84.49.55.08 1.4-.65 1.4-4.93.01-8.46-2.17-10.03-3.36a.843.843 0 0 0-1.31.41c-6.02 18.53 3.55 20.6 6.55 20.81v4.49h-4.93v-.87c0-.55-.45-1-1-1h-4.47c-.59-.41-1.3-.65-2.09-.65H76v-1.05c0-.55-.45-1-1-1H58.22c-.55 0-1 .45-1 1V67h-5.61c-2.21 0-4 1.79-4 4v36.74c0 2.21 1.79 4 4 4h10.37c2.21 0 4-1.79 4-4V80.13h5.56l-1.51 26.51a4.819 4.819 0 0 0 4.81 5.1h9.9l.1-.04c.25.81 1.01 1.39 1.9 1.39h5.96v13.17h29.34v-25.69c0-2.81-2.27-5.09-5.08-5.09h-.79V87c3.8-.21 8.04-4.92 10.02-23.39zM86.74 95.48c-1.11 0-2 .89-2 2v1.39h-3.39V77.43h4.87c.55 0 1-.45 1-1v-.86h4.93v4.44c0 4.87 3.95 8.82 8.82 8.82h1.12v6.65z" opacity="1" data-original="#6a95ba" class=""></path><path fill="#e8cdbf" d="m71.54 80.13.29-5.13.43-7.59a3.681 3.681 0 0 1 3.48-2.45h3.92c.79 0 1.5.24 2.09.65 1.28.88 1.95 2.54 1.42 4.18l-1.82 5.6v23.48h3.39v12.22c0 .21.03.42.1.61l-.1.04h-9.9c-2.77 0-4.97-2.33-4.81-5.1zM102.09 88.83h-1.12c-4.87 0-8.82-3.95-8.82-8.82V62.99c.53.03.85.01.85.01 3.67 0 5.84-1.12 6.97-1.99.61-.47 1.47-.35 1.89.29l.69 1.03c.3.44.44.95.48 1.48.14 2.09.81 3.59 1.49 4.59.58.88 1.88.88 2.5.02.63-.86 1.59-2.03 2.98-3.42 3-3 6 1 6 4 0 2.65-5.48 7.66-6.74 8.78-.19.16-.33.36-.41.6-.38 1.07-1.11 4.18 2.15 6.62 1.36 1.02 3.21 2.11 5.17 2v8.48h-14.08z" opacity="1" data-original="#e8cdbf" class=""></path><path fill="#7bc375" d="M87.22 67.48h4.93v8.09h-4.93z" opacity="1" data-original="#6a95ba" class=""></path><path fill="#3b5356" d="M87.22 75.57v.86c0 .55-.45 1-1 1h-4.87v-2.04l1.82-5.6c.53-1.64-.14-3.3-1.42-4.18h4.47c.55 0 1 .45 1 1v.87zM75 62.91c.55 0 1 .45 1 1v1.05h-.26c-1.57 0-2.96.98-3.48 2.45L71.83 75l-.29 5.13H61.82V62.91z" opacity="1" data-original="#3b5356" class=""></path><path fill="#ffba08" d="M61.82 62.91v17.22h-3.6c-.55 0-1-.45-1-1V63.91c0-.55.45-1 1-1z" opacity="1" data-original="#ff9933" class=""></path><g fill="#6a95ba"><path d="m21.86 17.81-3.5 3.5c-.63.63-1.71.34-1.95-.52L13.03 8.38a.758.758 0 0 1 .89-.94l12.95 2.81c.91.2 1.23 1.32.58 1.97l-3.5 3.5 5.37 5.37c.34.34.9.31 1.21-.07l2.83-3.54a.81.81 0 0 1 1.24-.03l14.83 16.68c.26.3.74.25.94-.09l2.2-3.67c.2-.32.65-.38.92-.11l16.37 16.36c.61.61.61 1.6 0 2.21l-1.71 1.71c-.64.64-1.69.61-2.29-.08L54.54 37.39c-.28-.31-.79-.25-.97.12l-2.21 4.42c-.19.38-.7.44-.97.12L34.76 23.66a.82.82 0 0 0-1.35.17l-1.89 3.79c-.27.52-.98.61-1.35.16zM92.7 113.09h-5.96c-.89 0-1.65-.58-1.9-1.39-.07-.19-.1-.4-.1-.61V97.48c0-1.11.89-2 2-2h30.22c2.81 0 5.08 2.28 5.08 5.09v25.69H92.7zM21.37 32.26v75.48c0 2.21-1.79 4-4 4H7c-2.21 0-4-1.79-4-4V32.26c0-2.21 1.79-4 4-4h10.37c2.21 0 4 1.79 4 4z" fill="#7bc375" opacity="1" data-original="#6a95ba" class=""></path></g><path fill="#ffba08" d="M43.57 52v55.74c0 2.21-1.79 4-4 4H29.2c-2.21 0-4-1.79-4-4V52c0-2.21 1.79-4 4-4h10.37c2.21 0 4 1.79 4 4z" opacity="1" data-original="#ff9933" class=""></path><path fill="#7bc375" d="M65.98 80.13v27.61c0 2.21-1.79 4-4 4H51.61c-2.21 0-4-1.79-4-4V71c0-2.21 1.79-4 4-4h5.61v12.13c0 .55.45 1 1 1h3.6z" opacity="1" data-original="#6a95ba" class=""></path><path fill="#3b5356" d="M92.15 62.99c-3-.21-12.57-2.28-6.55-20.81.18-.55.85-.76 1.31-.41 1.57 1.19 5.1 3.37 10.03 3.36.73 0 1.14-.85.65-1.4-.63-.71-1.27-1.68-1.5-2.84-.1-.48.25-.94.74-.99 5.11-.55 32.08-1.63 29.36 23.71-1.98 18.47-6.22 23.18-10.02 23.39-1.96.11-3.81-.98-5.17-2-3.26-2.44-2.53-5.55-2.15-6.62.08-.24.22-.44.41-.6 1.26-1.12 6.74-6.13 6.74-8.78 0-3-3-7-6-4-1.39 1.39-2.35 2.56-2.98 3.42-.62.86-1.92.86-2.5-.02-.68-1-1.35-2.5-1.49-4.59-.04-.53-.18-1.04-.48-1.48l-.69-1.03c-.42-.64-1.28-.76-1.89-.29-1.13.87-3.3 1.99-6.97 1.99 0 0-.32.02-.85-.01z" opacity="1" data-original="#3b5356" class=""></path><path fill="#3b5356" d="M99.477 71.826a.992.992 0 0 1-.54-.159l-3.652-2.348a.999.999 0 0 1 .315-1.815l4.304-1a1 1 0 0 1 .452 1.948l-1.999.464 1.662 1.068a1 1 0 0 1-.542 1.842zM109.236 74.348a1 1 0 0 1-.422-1.907 3.888 3.888 0 0 0 2.007-2.229 3.83 3.83 0 0 0 .189-1.525 1 1 0 0 1 .92-1.074.989.989 0 0 1 1.074.92 5.846 5.846 0 0 1-.291 2.326 5.845 5.845 0 0 1-3.059 3.396.982.982 0 0 1-.418.093zM105.018 114.087H86.739a1 1 0 0 1 0-2h18.278a1 1 0 0 1 .001 2z" opacity="1" data-original="#3b5356" class=""></path></g></svg>